<svg xmlns="http://www.w3.org/2000/svg" viewBox="0 0 16 16" fill="currentColor" shape-rendering="crispEdges" aria-hidden="true">
  <rect x="6" y="0" width="3" height="1"/>
  <rect x="5" y="1" width="1" height="2"/>
  <rect x="9" y="1" width="1" height="2"/>
  <rect x="6" y="3" width="3" height="1"/>
  <rect x="5" y="4" width="5" height="1"/>
  <rect x="4" y="5" width="7" height="1"/>
  <rect x="11" y="5" width="2" height="1"/>
  <rect x="4" y="6" width="7" height="1"/>
  <rect x="11" y="6" width="2" height="2"/>
  <rect x="4" y="7" width="3" height="1"/>
  <rect x="8" y="7" width="3" height="1"/>
  <rect x="4" y="8" width="3" height="1"/>
  <rect x="8" y="8" width="3" height="1"/>
  <rect x="4" y="9" width="7" height="2"/>
  <rect x="5" y="11" width="5" height="2"/>
  <rect x="5" y="13" width="1" height="2"/>
  <rect x="9" y="13" width="1" height="2"/>
  <rect x="4" y="15" width="2" height="1"/>
  <rect x="9" y="15" width="2" height="1"/>
</svg>
